<svg xmlns="http://www.w3.org/2000/svg" xmlns:xlink="http://www.w3.org/1999/xlink" width="500" zoomAndPan="magnify" viewBox="0 0 375 374.999991" height="500" preserveAspectRatio="xMidYMid meet" version="1.0"><path fill="#efedea" d="M 246.429688 95.453125 C 241.097656 97.644531 238.179688 100.035156 235.191406 104.660156 C 231.980469 109.625 230.921875 113.996094 231.308594 120.671875 C 231.839844 129.839844 236.699219 137.152344 244.96875 141.210938 C 250.441406 143.898438 258.769531 144.328125 264.425781 142.210938 C 275.253906 138.160156 280.828125 130.144531 280.800781 118.667969 C 280.785156 112.292969 280.011719 109.546875 276.84375 104.609375 C 270.863281 95.289062 256.988281 91.113281 246.429688 95.453125 M 153.96875 153.351562 C 148.101562 154.273438 141.496094 156.027344 136.839844 157.898438 C 130.71875 160.351562 120.261719 166.898438 120.875 167.890625 C 121.109375 168.269531 120.9375 168.335938 120.476562 168.050781 C 119.425781 167.402344 109.132812 177.757812 104.171875 184.453125 C 97.4375 193.550781 88.4375 209.933594 89.15625 211.796875 C 89.347656 212.304688 89.242188 212.558594 88.921875 212.355469 C 87.765625 211.644531 82.816406 228.367188 81.988281 235.773438 C 80.292969 250.925781 84.128906 257.726562 98.492188 265.039062 C 124.460938 278.253906 169.527344 280.945312 199.074219 271.046875 C 206.464844 268.570312 215.578125 264.058594 222.441406 259.476562 C 231.0625 253.722656 240.824219 245.160156 240.097656 243.988281 C 239.875 243.621094 240.015625 243.523438 240.410156 243.769531 C 241.191406 244.25 248.875 235.5 254.480469 227.753906 C 261.292969 218.339844 268.75 205.273438 273.449219 194.523438 C 274.984375 191.015625 276.515625 187.542969 276.859375 186.804688 C 278.101562 184.109375 281.027344 175.9375 282.507812 171.027344 C 285.246094 161.96875 285.429688 157.601562 283.082031 157.601562 C 282.515625 157.601562 279.289062 158.53125 275.910156 159.664062 C 261.621094 164.457031 250.453125 165.835938 237.453125 164.414062 C 230.597656 163.660156 214.660156 160.738281 197.269531 157.046875 C 184.199219 154.269531 172.671875 152.886719 163.472656 152.996094 C 159.167969 153.046875 154.890625 153.207031 153.96875 153.351562 " fill-opacity="1" fill-rule="evenodd"/></svg>